# xmcd
#
# Track frame offsets:
#	150
#	3154
#	32270
#	52704
#	85844
#	122086
#	153981
#	195474
#	217203
#	236025
#	254465
#	271614
#
# Disc length: 3979 seconds
#
# Revision: 1
# Processed by: cddbd v1.5.2PL0 Copyright (c) Steve Scherf et al.
# Submitted via: CDmax 2.0
#
DISCID=8f0f890c
DTITLE=Eric Clapton - Beauty Surrounds (disc1)
DYEAR=2009
DGENRE=Blues
TTITLE0=Opening
TTITLE1=Tell the Truth
TTITLE2=Key to the Highway
TTITLE3=Hoochie Coochie Man
TTITLE4=I Shot the Sheriff
TTITLE5=Isn't It a Pity
TTITLE6=Why Does Love Got to be So Sad
TTITLE7=Driftin'
TTITLE8=Travelin' Alone
TTITLE9=I Can't Judge Nobody
TTITLE10=Motherless Child
TTITLE11=Running on the Faith
EXTD=Eric Clapton\tguitar, vocals\nDoyle Bramhall II\tguitar, vocals\nChris S
EXTD=tainton\tkeyboards\nWillie Weeks\tbass\nAbe Laboriel, Jr.\tdrums\nMichel
EXTD=le John\tbacking vocals\nSharon White\tbacking vocals\n\nRecorded live a
EXTD=t Budokan, Tokyo, Japan on February 18th, 2009
EXTT0=
EXTT1=
EXTT2=
EXTT3=
EXTT4=
EXTT5=
EXTT6=
EXTT7=EC solo
EXTT8=
EXTT9=
EXTT10=
EXTT11=
PLAYORDER=
